<svg width="930.240234" height="931.499634" viewBox="0 0 930.24 931.5" fill="none" xmlns="http://www.w3.org/2000/svg" xmlns:xlink="http://www.w3.org/1999/xlink">
	<desc>
			Created with Pixso.
	</desc>
	<defs/>
	<path id="[Linked] Ellipse 1" d="M285.46 227.48C431.16 131.92 627.24 173.31 723.41 319.93C819.58 466.56 779.43 662.89 633.73 758.46C488.03 854.02 291.95 812.63 195.78 666.01C99.61 519.38 139.76 323.05 285.46 227.48Z" fill="#BAB6B6" fill-opacity="1.000000" fill-rule="nonzero"/>
	<path id="[Copy] всі сенси в тобі всі сенси" d="M314.08 236.91L299.46 245.4L281.93 215.22L294.61 207.86C301.74 203.71 307.96 204.15 310.92 209.25C312.89 212.64 311.62 216.24 308.02 219.33C313 217 317.99 218.04 320.44 222.25C323.34 227.25 321.15 232.81 314.08 236.91ZM291.91 217.05L295.85 223.85L302 220.28C304.89 218.6 305.87 216.26 304.61 214.1C303.42 212.05 300.88 211.84 297.92 213.56L291.91 217.05ZM298.52 228.44L302.87 235.93L310.82 231.31C313.43 229.79 314.27 227.55 313.01 225.39C311.56 222.89 309.09 222.31 306.48 223.82L298.52 228.44Z" fill="#000000" fill-opacity="1.000000" fill-rule="evenodd"/>
	<path id="[Copy] всі сенси в тобі всі сенси" d="M352.9 205.29C355.29 212.34 352.22 219.32 344.16 222.79C334.57 226.92 325.86 222.57 321.69 212.86C317.47 203.06 320.48 193.74 329.87 189.7C337.71 186.33 345.09 188.56 348.61 195.3L341.39 198.4C339.46 195.56 336.23 194.17 332.59 195.74C327.94 197.74 326.5 202.97 329.28 209.44C332.1 216 336.86 218.64 341.56 216.61C344.89 215.18 346.52 212.11 345.68 208.39L352.9 205.29Z" fill="#000000" fill-opacity="1.000000" fill-rule="evenodd"/>
	<path id="[Copy] всі сенси в тобі всі сенси" d="M356.34 170.3C357.11 172.63 355.73 175.2 353.24 176.03C350.75 176.86 348.09 175.64 347.31 173.32C346.53 170.96 347.92 168.38 350.41 167.55C352.9 166.72 355.55 167.95 356.34 170.3ZM369.74 212.55L361.94 215.15L350.9 182.04L358.69 179.44L369.74 212.55Z" fill="#000000" fill-opacity="1.000000" fill-rule="evenodd"/>
	<path id="[Copy] всі сенси в тобі всі сенси" d="" fill="#000000" fill-opacity="1.000000" fill-rule="evenodd"/>
	<path id="[Copy] всі сенси в тобі всі сенси" d="M418.52 189.17C419.28 196.58 414.73 202.7 406.09 204.29C395.83 206.18 388.31 200 386.4 189.61C384.47 179.12 389.48 170.7 399.53 168.85C407.92 167.3 414.63 171.12 416.55 178.48L408.82 179.9C407.58 176.69 404.74 174.63 400.83 175.34C395.85 176.26 393.29 181.04 394.56 187.97C395.85 194.99 399.9 198.61 404.94 197.69C408.51 197.03 410.77 194.41 410.79 190.59L418.52 189.17Z" fill="#000000" fill-opacity="1.000000" fill-rule="evenodd"/>
	<path id="[Copy] всі сенси в тобі всі сенси" d="M454.74 189.25C453.67 195.39 448.34 199.72 440.23 200.23C429.72 200.89 422.87 194.32 422.19 183.39C421.51 172.64 427.55 164.91 437.53 164.28C446.11 163.74 453.79 168.65 454.56 180.87L454.72 183.4L430.45 184.92C430.89 190.87 434.63 194.15 439.93 193.81C443.47 193.59 446.09 191.89 447.03 188.86L454.74 189.25ZM438.04 170.67C433.15 170.98 430.09 174.92 430.12 179.38L446.5 178.36C446.15 173.62 442.77 170.37 438.04 170.67Z" fill="#000000" fill-opacity="1.000000" fill-rule="evenodd"/>
	<path id="[Copy] всі сенси в тобі всі сенси" d="M462.18 163.84L470.09 164.3L469.26 178.33L482.77 179.12L483.6 165.1L491.49 165.56L489.44 200.41L481.55 199.94L482.38 185.86L468.87 185.07L468.04 199.15L460.13 198.69L462.18 163.84Z" fill="#000000" fill-opacity="1.000000" fill-rule="evenodd"/>
	<path id="[Copy] всі сенси в тобі всі сенси" d="M527.06 194.67C525.18 201.87 518.78 206.02 510.13 204.49C499.85 202.67 494.97 194.25 496.81 183.85C498.67 173.34 506.31 167.21 516.37 168.99C524.77 170.48 529.72 176.4 528.96 183.96L521.22 182.59C521.17 179.15 519.23 176.22 515.33 175.53C510.34 174.65 506.26 178.23 505.03 185.16C503.79 192.2 506.32 197.01 511.36 197.9C514.93 198.53 517.97 196.87 519.32 193.3L527.06 194.67Z" fill="#000000" fill-opacity="1.000000" fill-rule="evenodd"/>
	<path id="[Copy] всі сенси в тобі всі сенси" d="M546.79 176.41L539.87 199.15L560.17 180.48L568.26 182.94L558.1 216.33L550.49 214.02L557.41 191.25L537.16 209.97L529.05 207.5L539.21 174.11L546.79 176.41Z" fill="#000000" fill-opacity="1.000000" fill-rule="evenodd"/>
	<path id="[Copy] всі сенси в тобі всі сенси" d="" fill="#000000" fill-opacity="1.000000" fill-rule="evenodd"/>
	<path id="[Copy] всі сенси в тобі всі сенси" d="M592.48 231.77L577.36 224.21L592.95 192.98L606.06 199.53C613.44 203.22 616.49 208.65 613.86 213.92C612.11 217.43 608.4 218.35 603.85 217.04C608.53 219.92 610.4 224.66 608.22 229.03C605.64 234.2 599.79 235.42 592.48 231.77ZM596.9 202.32L593.38 209.36L599.75 212.53C602.74 214.03 605.22 213.56 606.34 211.32C607.4 209.19 606.18 206.96 603.12 205.43L596.9 202.32ZM591.01 214.11L587.14 221.85L595.38 225.96C598.08 227.31 600.4 226.78 601.52 224.54C602.81 221.96 601.94 219.57 599.25 218.22L591.01 214.11Z" fill="#000000" fill-opacity="1.000000" fill-rule="evenodd"/>
	<path id="[Copy] всі сенси в тобі всі сенси" d="" fill="#000000" fill-opacity="1.000000" fill-rule="evenodd"/>
	<path id="[Copy] всі сенси в тобі всі сенси" d="M644.7 230.68L635.57 224.03L639.54 218.57L664.23 236.56L660.25 242.02L651.12 235.37L634.54 258.12L628.12 253.44L644.7 230.68Z" fill="#000000" fill-opacity="1.000000" fill-rule="evenodd"/>
	<path id="[Copy] всі сенси в тобі всі сенси" d="M682.45 276.9C675.09 284.8 665.42 285.64 657.93 278.67C650.46 271.7 650.61 262 657.97 254.1C665.35 246.18 675.02 245.32 682.5 252.29C689.99 259.26 689.83 268.98 682.45 276.9ZM664.08 259.75C659.73 264.43 658.32 270.02 662.46 273.87C666.53 277.66 672.01 275.87 676.36 271.19C680.72 266.51 682.17 260.88 678.1 257.09C673.96 253.23 668.44 255.08 664.08 259.75Z" fill="#000000" fill-opacity="1.000000" fill-rule="evenodd"/>
	<path id="[Copy] всі сенси в тобі всі сенси" d="M722.1 278.23C724.38 280.94 726.06 282.94 728.09 283.41L725.87 289.02C721.91 288.41 719.32 285.5 714.74 280.3C709.56 274.43 704.46 274.46 697.25 279.44L697.5 279.74C702.19 278.65 706.53 280.25 709.96 284.33C715.53 290.95 714.84 299.5 706.84 306.23C698.6 313.16 689.27 312.6 682.74 304.83C676.2 297.06 677.21 287.78 686.99 279.55L689.4 277.53C701.95 266.97 712.06 266.55 719.91 275.65C720.67 276.52 721.36 277.35 722.02 278.13L722.1 278.23ZM690.68 287.35C685.63 291.6 684.5 296.68 687.81 300.62C691.07 304.5 696.23 304.25 701.3 299.98C706.27 295.8 707.1 291 703.82 287.1C700.54 283.2 695.69 283.22 690.68 287.35Z" fill="#000000" fill-opacity="1.000000" fill-rule="evenodd"/>
	<path id="[Copy] всі сенси в тобі всі сенси" d="M738.05 303.42C736.04 304.83 733.19 304.24 731.68 302.09C730.17 299.94 730.58 297.04 732.59 295.63C734.63 294.21 737.49 294.81 739 296.96C740.51 299.11 740.09 302 738.05 303.42ZM701.39 328.32L696.67 321.59L725.26 301.55L729.97 308.28L701.39 328.32Z" fill="#000000" fill-opacity="1.000000" fill-rule="evenodd"/>
	<path id="[Copy] всі сенси в тобі всі сенси" d="" fill="#000000" fill-opacity="1.000000" fill-rule="evenodd"/>
	<path id="[Copy] всі сенси в тобі всі сенси" d="" fill="#000000" fill-opacity="1.000000" fill-rule="evenodd"/>
	<path id="[Copy] всі сенси в тобі всі сенси" d="" fill="#000000" fill-opacity="1.000000" fill-rule="evenodd"/>
</svg>
